<svg width="376" height="241" viewBox="0 0 376 241" fill="none" xmlns="http://www.w3.org/2000/svg">
<path d="M0 241V231.069L36.6875 227.096H42.9673L80.9768 231.069V241H0ZM0.330518 9.93133V0H45.942V13.5728H42.9673L0.330518 9.93133ZM33.0518 241L33.7128 0H43.9589L45.942 112.886V241H33.0518ZM132.207 241L38.34 10.9244H36.6875V0H63.4594L149.063 210.875H141.792L143.775 206.902L226.405 0H239.295V10.9244H234.998L231.362 19.2006L143.114 241H132.207ZM193.683 241V231.069L238.964 227.096H245.575L291.847 231.069V241H193.683ZM227.066 241C227.506 222.462 227.727 204.144 227.727 186.047C227.727 167.729 227.727 150.184 227.727 133.411L229.049 0H257.473C257.253 18.3178 257.033 36.8562 256.812 55.6154C256.812 74.1539 256.812 92.8027 256.812 111.562V129.438C256.812 148.197 256.812 166.846 256.812 185.385C257.033 203.923 257.253 222.462 257.473 241H227.066ZM242.269 13.5728V0H291.186V9.93133L245.575 13.5728H242.269Z" fill="white"/>
<path d="M193.885 241V231.069L239.496 227.096H248.42L295.684 231.069V241H193.885ZM227.598 241C228.038 222.462 228.259 203.923 228.259 185.385C228.259 166.846 228.259 148.197 228.259 129.438V111.562C228.259 92.8027 228.259 74.1539 228.259 55.6154C228.259 36.8562 228.038 18.3178 227.598 0H258.336C258.115 18.3178 257.895 36.8562 257.675 55.6154C257.675 74.1539 257.675 92.8027 257.675 111.562V134.735C257.675 151.066 257.675 168.281 257.675 186.378C257.895 204.254 258.115 222.462 258.336 241H227.598ZM243.132 142.349V131.424H276.845C293.591 131.424 307.142 128.886 317.498 123.81C328.075 118.514 335.677 111.231 340.304 101.962C345.152 92.6923 347.575 81.9886 347.575 69.8503C347.575 50.6497 342.508 36.0838 332.372 26.1525C322.236 16.0005 306.481 10.9244 285.108 10.9244H243.132V0H287.421C317.609 0 339.863 6.28984 354.186 18.8695C368.729 31.4492 376 48.5531 376 70.1813C376 83.6438 372.585 95.8924 365.754 106.927C359.144 117.741 348.567 126.348 334.024 132.749C319.481 139.149 300.642 142.349 277.506 142.349H243.132ZM193.885 9.93133V0H243.132V13.5728H239.496L193.885 9.93133Z" fill="white"/>
</svg>
